<svg width="144" height="155" fill="none" xmlns="http://www.w3.org/2000/svg"><path d="M135.559 35.853a1.376 1.376 0 000-2.375L83.055 2.973a22.048 22.048 0 00-22.114 0L8.447 33.478a1.375 1.375 0 000 2.375l62.866 36.98a1.374 1.374 0 001.395 0l62.851-36.98zM2.562 45.206a1.376 1.376 0 00-2.062 1.2v59.775a16.505 16.505 0 008.195 14.228l55.742 33.423a1.38 1.38 0 001.375 0 1.377 1.377 0 00.688-1.19V83.291a1.375 1.375 0 00-.688-1.19L2.563 45.206zM77.5 83.531v69.094a1.375 1.375 0 002.063 1.189l55.739-33.422a16.5 16.5 0 008.198-14.211V46.406a1.377 1.377 0 00-2.063-1.186l-63.25 37.125a1.375 1.375 0 00-.687 1.186z" fill="#fff"/></svg>