<svg width="44" height="44" fill="none" xmlns="http://www.w3.org/2000/svg"><g clip-path="url(#clip0)"><path d="M8.323 24.631a.688.688 0 00-1.077.71C8.772 32.078 14.807 37.124 22 37.124c1.527 0 3.046-.231 4.504-.688a.688.688 0 00.068-1.289 96.235 96.235 0 01-9.409-4.779c-3.048-1.75-6-3.666-8.84-5.738zm34.02 4.546c-.36-.48-.783-.983-1.263-1.507a1.36 1.36 0 00-2.283.441c0 .014-.01.027-.014.04a1.354 1.354 0 00.27 1.38c1.955 2.149 2.27 3.31 2.19 3.555-.172.192-1.465.592-4.997-.303a35.332 35.332 0 01-1.66-.47 35.265 35.265 0 01-1.185-.386 15.188 15.188 0 001.679-2.341l.044-.076A15.073 15.073 0 0037.125 22c0-.545-.028-1.09-.086-1.633C36.217 12.79 29.786 6.875 22 6.875a15.07 15.07 0 00-9.144 3.084 15.245 15.245 0 00-3.938 4.455l-.044.075a15.078 15.078 0 00-1.189 2.623c-.32-.28-.629-.556-.927-.831a33.72 33.72 0 01-1.24-1.203c-2.54-2.6-2.843-3.92-2.763-4.164.172-.192 1.336-.504 4.178.113a1.359 1.359 0 001.336-.457l.03-.037a1.353 1.353 0 00-.744-2.186 20.402 20.402 0 00-2.044-.355C2.871 7.69 1.143 8.21.374 9.54c-.279.48-.546 1.297-.234 2.458.462 1.724 2.106 3.816 4.434 6.007a47.806 47.806 0 002.417 2.117 71.09 71.09 0 004.791 3.598 97.032 97.032 0 006.754 4.27c.821.473 1.642.931 2.461 1.375.82.443 1.632.868 2.438 1.273a84.356 84.356 0 005.488 2.529 61.81 61.81 0 002.218.873 48.43 48.43 0 002.949.996l.094.028c2.211.659 4.075 1.005 5.541 1.032h.15c1.86 0 3.12-.549 3.745-1.633.781-1.343.35-3.122-1.277-5.285z" fill="#F7F7F7"/></g><defs><clipPath id="clip0"><path fill="#fff" d="M0 0h44v44H0z"/></clipPath></defs></svg>