<svg width="35" height="35" fill="none" xmlns="http://www.w3.org/2000/svg"><path d="M17.5 0C7.839 0 0 7.839 0 17.5 0 27.162 7.839 35 17.5 35 27.162 35 35 27.162 35 17.5 35 7.839 27.162 0 17.5 0zm-.547 27.708a1.823 1.823 0 110-3.645 1.823 1.823 0 010 3.645zm3.048-9.296c-1.477.991-1.68 1.9-1.68 2.734a1.276 1.276 0 11-2.553 0c0-1.997.919-3.585 2.81-4.855 1.757-1.179 2.75-1.926 2.75-3.57 0-1.117-.638-1.966-1.959-2.594-.31-.147-1.002-.291-1.854-.281-1.068.013-1.897.268-2.536.783-1.205.97-1.307 2.025-1.307 2.04a1.278 1.278 0 01-2.552-.123c.01-.221.164-2.216 2.258-3.9 1.085-.874 2.466-1.328 4.101-1.348 1.158-.014 2.245.182 2.982.53 2.207 1.044 3.42 2.784 3.42 4.893 0 3.084-2.062 4.468-3.88 5.69z" fill="#fff"/></svg>