<svg width="166" height="144" fill="none" xmlns="http://www.w3.org/2000/svg"><path d="M141.334 24.648A82.498 82.498 0 00.764 79.274a82.5 82.5 0 0020.471 58.382l.062.069c.113.12.22.244.344.361.254.289.543.615.883.956a14.15 14.15 0 0010.406 4.454 14.163 14.163 0 0010.343-4.599 54.014 54.014 0 0179.495 0 14.154 14.154 0 0010.42 4.589 14.16 14.16 0 0010.429-4.568l1.103-1.203.062-.069a82.474 82.474 0 00-3.437-113.011l-.011.013zM77.5 28a5.5 5.5 0 0111 0v11a5.5 5.5 0 01-11 0V28zM39 88.5H28a5.5 5.5 0 010-11h11a5.5 5.5 0 110 11zm16.775-32.725a5.5 5.5 0 01-7.776 0l-7.779-7.776A5.5 5.5 0 1148 40.22L55.774 48a5.5 5.5 0 010 7.775zm51.322 7.94L90.769 89.67a10.656 10.656 0 01-2.407 2.406 10.35 10.35 0 01-12.03-16.844l25.952-16.328a3.517 3.517 0 014.022 0 3.457 3.457 0 01.791 4.813zm10.904-7.94a5.502 5.502 0 01-9.288-3.917 5.496 5.496 0 011.512-3.859l7.776-7.779a5.498 5.498 0 017.779 0 5.503 5.503 0 010 7.78l-7.779 7.775zM138 88.5h-11a5.499 5.499 0 01-3.889-9.39A5.498 5.498 0 01127 77.5h11a5.498 5.498 0 013.889 9.39A5.499 5.499 0 01138 88.5z" fill="#fff"/></svg>